<?xml version="1.0" standalone="no"?>
<!DOCTYPE svg PUBLIC "-//W3C//DTD SVG 20010904//EN"
 "http://www.w3.org/TR/2001/REC-SVG-20010904/DTD/svg10.dtd">
<svg version="1.0" xmlns="http://www.w3.org/2000/svg"
 width="478.000000pt" height="480.000000pt" viewBox="0 0 478.000000 480.000000"
 preserveAspectRatio="xMidYMid meet">

<g transform="translate(0.000000,480.000000) scale(0.100000,-0.100000)"
fill="#000000" stroke="none">
<path d="M3346 4202 c-19 -56 -36 -76 -36 -42 0 12 -5 31 -11 42 -11 20 -14
17 -34 -38 -58 -154 -124 -257 -272 -425 -141 -160 -183 -194 -183 -149 0 11
-5 20 -11 20 -22 0 -52 -49 -119 -192 -38 -81 -83 -168 -100 -193 -48 -69 -13
-56 63 24 36 38 93 117 128 176 58 97 133 185 158 185 6 0 18 -9 29 -20 18
-19 19 -18 137 57 152 97 288 198 343 255 37 38 43 51 40 79 l-3 34 -47 -44
c-27 -24 -48 -41 -48 -37 0 3 14 29 31 57 30 48 52 139 33 139 -4 0 -21 -12
-37 -27 -25 -23 -29 -25 -23 -8 4 11 10 40 13 65 4 35 1 50 -14 69 l-20 25
-17 -52z m-97 -199 c-31 -52 -151 -211 -186 -248 -70 -73 -91 -83 -31 -15 68
79 187 234 216 282 9 15 18 26 20 23 2 -2 -6 -21 -19 -42z m30 -75 c-38 -50
-255 -268 -266 -268 -5 0 60 69 142 155 83 85 152 155 153 155 2 0 -11 -19
-29 -42z m0 -104 c-43 -45 -177 -153 -221 -178 -44 -25 -31 -13 87 82 55 44
111 92 124 106 14 14 29 26 35 26 5 0 -6 -16 -25 -36z"/>
<path d="M3773 4198 c-5 -7 -23 -35 -39 -63 -26 -45 -29 -47 -32 -25 -5 44
-12 70 -20 70 -4 0 -27 -34 -51 -75 -111 -187 -415 -442 -673 -563 -3 -2 -9 6
-13 17 -3 12 -12 21 -19 21 -25 0 -103 -96 -166 -205 -72 -123 -161 -220 -250
-272 -66 -38 -96 -51 -87 -36 4 6 -13 33 -37 59 -23 27 -71 88 -104 136 -102
143 -218 205 -372 196 -58 -3 -86 -10 -119 -30 -36 -22 -40 -27 -24 -33 10 -5
22 -7 26 -6 5 1 6 -3 3 -8 -4 -6 -25 1 -49 15 -23 13 -53 24 -67 24 -24 0 -24
-1 8 -21 18 -12 31 -24 28 -27 -3 -3 -12 1 -21 8 -21 18 -32 4 -16 -21 7 -12
10 -23 8 -26 -3 -2 -33 3 -67 12 -88 23 -92 15 -11 -25 66 -31 71 -36 71 -65
0 -18 7 -54 15 -80 10 -36 13 -74 8 -143 -7 -110 0 -122 72 -122 55 0 75 22
75 83 0 42 5 52 49 101 27 30 52 68 56 85 6 28 9 30 22 19 9 -7 27 -35 39 -63
29 -61 31 -132 5 -183 -45 -90 -34 -149 39 -226 59 -62 75 -56 25 10 -36 47
-37 51 -31 109 4 33 11 85 16 115 8 48 8 45 3 -25 -10 -141 -9 -149 33 -199
36 -43 39 -45 56 -29 10 9 18 28 18 42 0 18 3 22 11 14 6 -6 9 -23 5 -36 -8
-31 -70 -69 -196 -118 l-95 -37 -10 -118 c-6 -66 -15 -128 -20 -138 -6 -13 -3
-29 8 -48 9 -17 17 -45 17 -64 0 -35 42 -114 60 -114 15 0 40 56 40 89 0 22
-8 35 -30 51 -29 20 -30 24 -24 78 8 90 26 186 36 199 5 6 39 15 76 18 37 4
82 14 101 21 18 8 68 14 112 14 87 0 79 -7 99 90 6 30 18 66 26 80 10 16 13
18 8 5 -3 -11 -9 -52 -13 -91 -7 -78 -18 -99 -59 -109 l-27 -7 35 -14 c63 -27
193 -54 295 -60 113 -7 204 10 265 50 19 12 43 25 53 29 10 4 16 11 12 16 -11
19 -22 102 -14 107 5 3 9 -3 9 -13 0 -10 8 -40 17 -67 23 -65 89 -129 223
-218 122 -81 155 -110 180 -158 11 -19 39 -57 64 -84 50 -54 116 -172 116
-205 0 -12 -10 -40 -22 -62 -27 -47 -15 -63 35 -48 45 13 59 32 62 81 3 37 -3
50 -35 93 -43 56 -94 160 -110 220 -12 46 -22 60 -70 96 -51 38 -87 113 -111
226 -27 126 -69 214 -133 278 -67 67 -107 84 -174 78 -29 -3 -55 -10 -58 -14
-3 -5 -20 -9 -37 -8 -30 0 -31 1 -9 11 12 6 22 15 22 19 0 5 20 6 44 3 36 -5
47 -3 64 14 13 13 37 22 64 24 36 2 44 7 46 26 3 19 9 22 46 22 41 0 74 19 59
33 -3 4 2 7 13 7 10 0 36 5 57 11 31 8 38 14 34 30 -3 13 0 19 11 19 24 0 102
49 102 65 0 8 -10 21 -21 29 -22 15 -22 15 7 22 90 22 133 61 102 92 -8 8 -4
14 18 22 71 27 111 79 84 106 -7 7 2 16 29 29 55 24 78 50 62 69 -10 12 -7 18
17 30 31 16 72 61 72 78 0 6 -14 8 -35 4 -19 -4 -35 -4 -35 0 0 3 18 23 39 43
38 35 63 91 41 91 -6 0 -33 -11 -60 -25 -70 -35 -72 -31 -11 22 29 26 60 62
67 80 14 32 19 83 9 83 -3 0 -29 -16 -58 -35 -28 -19 -56 -35 -60 -35 -5 0 14
25 41 55 85 93 111 208 31 141 -17 -15 -33 -25 -35 -23 -2 2 5 21 16 42 30 58
24 183 -7 143z m-233 -301 c-92 -90 -203 -178 -285 -227 -57 -33 -35 -13 81
74 56 41 144 114 195 160 52 47 96 85 99 85 3 0 -38 -41 -90 -92z m90 -24
c-102 -89 -333 -241 -404 -265 -25 -9 -26 -9 109 74 55 34 152 99 215 145 63
46 117 83 119 83 3 0 -15 -17 -39 -37z m-65 -139 c-73 -47 -321 -174 -339
-174 -6 0 52 33 129 74 77 40 167 89 200 109 86 52 93 45 10 -9z m0 -110 c-83
-40 -237 -91 -297 -99 -26 -4 1 8 67 29 61 19 148 50 195 70 108 44 126 44 35
0z m65 -60 c-55 -24 -259 -71 -336 -78 -57 -5 -44 0 71 24 77 16 169 38 205
49 78 23 108 26 60 5z m-10 -80 c-61 -20 -196 -41 -305 -49 -120 -9 -103 4 21
16 55 6 144 18 199 28 123 22 144 23 85 5z m-1666 -95 c14 -11 26 -24 26 -29
0 -5 -11 2 -25 15 -29 29 -42 31 -47 8 -3 -15 -5 -14 -10 5 -8 29 19 30 56 1z
m1601 -1 c-26 -16 -286 -24 -311 -10 -13 7 6 9 66 6 47 -3 121 -1 165 4 44 5
85 10 90 10 6 1 1 -4 -10 -10z m-1712 -15 c-7 -2 -19 -2 -25 0 -7 3 -2 5 12 5
14 0 19 -2 13 -5z m144 -55 c-3 -8 -6 -5 -6 6 -1 11 2 17 5 13 3 -3 4 -12 1
-19z m-133 -47 c-8 -29 -14 -55 -11 -57 2 -2 11 21 21 51 9 30 21 57 26 60 9
6 1 -25 -44 -165 -15 -47 -25 -66 -26 -50 -1 23 -2 23 -10 5 l-9 -20 0 20 c-1
25 14 84 41 158 25 71 34 70 12 -2z m113 12 c-3 -10 -5 -4 -5 12 0 17 2 24 5
18 2 -7 2 -21 0 -30z m1408 11 l110 -13 -110 3 c-76 3 -121 9 -145 20 l-35 17
35 -7 c19 -4 85 -13 145 -20z m-85 -75 c41 -15 65 -28 53 -28 -28 -1 -123 34
-149 55 -22 18 -33 21 96 -27z m-1579 8 c-10 -9 -11 -8 -5 6 3 10 9 15 12 12
3 -3 0 -11 -7 -18z m49 -17 c0 -5 -5 -10 -10 -10 -6 0 -10 -6 -9 -12 4 -34 -1
-42 -15 -23 -11 15 -11 21 3 37 17 20 31 24 31 8z m1483 -88 c32 -19 56 -37
53 -39 -7 -8 -102 47 -138 79 l-33 30 30 -18 c17 -10 56 -33 88 -52z m-58 -68
l30 -25 -42 22 c-23 12 -57 38 -75 57 l-33 35 45 -31 c25 -18 59 -44 75 -58z
m-98 -44 c19 -13 32 -25 29 -27 -10 -10 -68 31 -86 60 -27 44 -25 59 2 21 12
-17 37 -42 55 -54z m-90 -53 c17 -19 17 -20 -4 -8 -25 13 -53 60 -53 88 1 11
9 2 20 -21 11 -22 28 -48 37 -59z m-1240 77 c-3 -3 -12 -4 -19 -1 -8 3 -5 6 6
6 11 1 17 -2 13 -5z m0 -40 c-3 -3 -12 -4 -19 -1 -8 3 -5 6 6 6 11 1 17 -2 13
-5z m1133 -17 c0 -12 7 -33 16 -45 8 -12 10 -22 5 -22 -12 0 -41 52 -41 75 0
8 5 15 10 15 6 0 10 -10 10 -23z m-1156 -23 c23 -9 20 -23 -4 -17 -11 3 -20 9
-20 14 0 11 3 11 24 3z m416 -343 c-19 -11 -58 -22 -85 -25 -47 -5 -47 -5 18
13 38 11 71 22 74 25 4 3 11 6 17 6 6 -1 -5 -9 -24 -19z m-215 -188 c-4 -27
-11 -55 -16 -63 -10 -15 -4 52 7 93 10 35 16 16 9 -30z m29 -258 c-10 -8 -23
-14 -29 -14 -5 -1 1 8 15 19 14 10 27 17 29 14 3 -2 -4 -11 -15 -19z m1579
-127 l18 -33 -23 27 c-13 15 -32 42 -41 60 l-18 33 23 -27 c13 -15 32 -42 41
-60z m61 -177 c3 -4 -6 -6 -19 -3 -14 2 -25 6 -25 8 0 8 39 4 44 -5z"/>
<path d="M1821 3154 c0 -11 3 -14 6 -6 3 7 2 16 -1 19 -3 4 -6 -2 -5 -13z"/>
<path d="M1980 3633 c-8 -4 -35 -23 -59 -45 -26 -22 -54 -38 -69 -38 -31 0
-102 -69 -102 -100 0 -17 4 -20 18 -15 113 50 176 55 275 25 110 -34 181 -90
257 -202 67 -99 126 -168 144 -168 6 0 30 13 54 29 l43 28 -33 9 c-29 9 -78
62 -78 85 0 4 17 5 38 2 31 -4 44 0 68 21 29 25 29 25 6 26 -42 0 -82 33 -115
94 -17 32 -41 63 -54 69 -12 5 -20 14 -17 18 9 15 58 10 97 -10 48 -25 47 -8
-2 40 -47 44 -97 56 -156 35 -21 -8 -45 -12 -52 -9 -20 8 -16 50 7 73 11 11
20 22 20 25 0 15 -74 1 -135 -25 -38 -17 -81 -30 -96 -30 -32 0 -53 23 -46 50
3 11 4 20 4 19 -1 0 -9 -3 -17 -6z m-39 -74 c-12 -19 -21 -27 -21 -19 0 18 30
64 37 57 2 -3 -5 -20 -16 -38z m210 5 c-19 -8 -42 -19 -50 -26 -9 -6 -3 1 12
16 15 14 38 26 50 26 17 -1 15 -4 -12 -16z m32 -51 c-7 -2 -19 -2 -25 0 -7 3
-2 5 12 5 14 0 19 -2 13 -5z m97 -39 l25 -15 -25 7 c-14 4 -43 11 -65 15 l-40
6 40 1 c22 1 51 -5 65 -14z m9 -28 c29 -15 59 -46 46 -46 -5 0 -16 7 -25 15
-9 8 -34 21 -56 29 -29 11 -33 15 -16 15 13 1 35 -5 51 -13z m92 -136 c15 -12
45 -27 66 -35 32 -11 34 -14 13 -14 -14 -1 -41 9 -60 21 -19 12 -51 27 -70 34
-35 13 -35 13 -7 14 16 0 42 -9 58 -20z"/>
<path d="M3376 3030 c-107 -27 -263 -143 -236 -175 9 -11 21 -8 68 17 46 24
65 28 96 24 50 -8 93 -31 134 -70 44 -41 58 -69 72 -146 18 -98 68 -178 127
-201 38 -14 43 -11 36 23 l-6 32 31 -23 c26 -18 42 -21 89 -19 l58 3 -32 18
c-51 27 -42 42 25 42 49 0 65 5 95 28 46 35 48 57 7 57 -37 0 -38 6 -5 32 19
15 25 29 25 58 0 21 -4 42 -10 45 -5 3 -10 -1 -10 -9 0 -26 -38 -56 -70 -56
-37 0 -55 27 -64 94 -12 99 -84 179 -189 211 -65 20 -189 27 -241 15z m148
-43 c22 -10 37 -20 34 -22 -3 -3 -22 2 -44 12 -61 26 -159 22 -228 -10 -31
-14 -54 -22 -51 -17 7 12 59 40 95 51 39 13 151 4 194 -14z m-69 -16 c13 -6
-9 -10 -65 -13 -47 -2 -87 -3 -89 -2 -2 2 12 7 30 13 42 11 97 12 124 2z m32
-57 c49 -24 123 -93 123 -114 0 -5 -18 10 -39 33 -50 54 -114 86 -193 96 l-63
8 61 2 c46 1 72 -5 111 -25z m-59 -23 c20 -10 46 -29 57 -41 18 -21 17 -21
-20 3 -22 14 -67 33 -100 41 -101 25 -102 26 -37 21 34 -3 79 -13 100 -24z"/>
<path d="M1863 2743 l-42 -4 -26 -79 c-15 -44 -37 -95 -51 -115 -17 -25 -22
-44 -18 -61 3 -13 1 -38 -6 -54 -10 -24 -10 -39 0 -75 7 -25 16 -45 20 -45 5
0 20 14 34 31 29 34 34 70 11 89 -19 16 -19 31 -1 67 8 15 28 58 45 94 17 37
38 69 46 72 7 3 29 2 47 -4 50 -15 146 -15 160 -1 19 19 -27 47 -72 43 -19 -1
-46 3 -60 9 -21 9 -16 10 26 5 55 -6 70 1 53 22 -11 13 -66 15 -166 6z m-45
-120 c-17 -40 -40 -74 -45 -69 -7 7 42 96 53 96 2 0 -2 -12 -8 -27z m-48 -243
c-8 -5 -22 -10 -30 -10 -13 0 -13 1 0 10 8 5 22 10 30 10 13 0 13 -1 0 -10z"/>
<path d="M2910 2485 c-25 -13 -66 -29 -92 -35 -56 -14 -61 -32 -27 -87 16 -26
45 -45 123 -83 55 -27 124 -54 151 -61 71 -17 85 -32 85 -93 0 -92 -17 -168
-43 -190 -24 -21 -77 -90 -77 -100 0 -3 21 -6 46 -6 42 0 47 3 57 30 6 17 20
30 32 32 18 3 21 14 32 118 6 63 18 135 27 159 9 24 16 59 16 77 0 32 -2 34
-55 49 -73 22 -115 57 -115 97 0 24 -11 41 -47 74 -26 24 -52 44 -57 44 -6 -1
-31 -12 -56 -25z m265 -432 c-4 -30 -9 -52 -12 -49 -3 3 -2 36 2 73 5 37 10
60 13 49 2 -10 1 -43 -3 -73z m-51 -172 c3 -4 -6 -6 -19 -3 -14 2 -25 6 -25 8
0 8 39 4 44 -5z"/>
<path d="M1488 2225 c-53 -57 -111 -128 -128 -158 -17 -31 -77 -99 -144 -165
-85 -83 -127 -133 -167 -199 -31 -53 -87 -123 -138 -177 -85 -87 -86 -88 -51
-82 19 3 132 9 250 12 243 7 373 -4 750 -61 264 -40 450 -61 610 -70 l115 -6
-25 22 c-14 12 -38 32 -55 45 -16 12 -27 25 -25 27 3 3 65 -6 138 -18 74 -13
161 -26 195 -30 58 -6 61 -6 42 9 -18 14 -13 15 75 10 52 -2 115 -7 140 -9 44
-4 43 -3 -50 45 l-95 49 80 1 80 1 -55 29 c-70 37 -52 37 112 1 73 -16 160
-32 193 -35 58 -6 59 -5 30 9 -16 8 -55 26 -85 39 l-55 25 80 1 80 1 -55 29
c-30 16 -50 29 -45 29 6 1 87 -12 180 -28 94 -16 171 -28 173 -27 5 5 -476
214 -543 236 -60 20 -90 40 -213 142 -79 65 -148 118 -153 118 -11 0 -2 -44
18 -84 14 -26 13 -28 -1 -23 -19 8 -22 -17 -3 -33 6 -6 62 -40 122 -77 184
-111 195 -118 195 -126 0 -4 -40 13 -90 38 -49 25 -91 45 -93 45 -2 0 -2 -14
1 -30 l4 -30 -68 31 c-139 62 -269 123 -277 130 -5 4 16 22 47 40 50 31 67 55
50 72 -4 4 -19 -2 -35 -13 -15 -11 -29 -16 -31 -10 -1 5 -43 -13 -91 -41 l-88
-51 -62 23 c-51 18 -82 41 -174 126 l-111 104 -44 -51 c-24 -27 -46 -50 -49
-50 -3 0 -27 27 -53 60 -31 40 -89 90 -171 150 -69 49 -128 90 -132 90 -5 -1
-52 -48 -105 -105z m269 -132 c-2 -1 -34 14 -71 34 l-69 36 7 -57 c9 -67 33
-140 70 -214 55 -108 51 -111 -33 -27 -74 73 -81 77 -81 53 0 -14 9 -55 20
-90 23 -75 23 -75 8 -60 -7 7 -15 12 -18 12 -4 0 -26 -43 -50 -95 -23 -53 -45
-94 -47 -91 -3 2 5 39 17 81 20 70 21 135 2 135 -4 0 -42 -35 -84 -77 -79 -79
-89 -82 -64 -22 33 82 32 87 -14 44 -55 -51 -47 -37 66 117 97 130 141 198
130 198 -4 0 -61 -47 -126 -105 -66 -58 -123 -105 -126 -105 -9 0 6 20 156
219 l145 193 82 -88 c46 -48 81 -89 80 -91z m410 -208 c138 -182 139 -185 46
-105 -35 30 -59 45 -61 37 -3 -15 25 -106 57 -184 11 -29 17 -53 13 -53 -14 1
-102 127 -135 194 l-33 66 -17 -48 c-9 -26 -17 -52 -17 -58 0 -6 25 -39 55
-74 58 -67 64 -83 21 -54 l-27 17 27 -73 c14 -39 24 -74 21 -76 -4 -5 -55 59
-181 224 l-48 63 32 29 c23 22 31 36 27 51 -4 15 6 37 32 73 21 28 46 66 56
85 9 18 20 29 25 25 4 -5 52 -68 107 -139z m344 -150 c45 -40 26 -48 -20 -9
-29 24 -40 44 -25 44 4 0 24 -16 45 -35z m314 -71 c42 -25 74 -48 72 -51 -7
-6 -157 80 -157 90 0 12 6 9 85 -39z"/>
<path d="M720 825 l0 -275 75 0 75 0 0 100 0 100 150 0 150 0 0 -100 0 -100
70 0 70 0 0 275 0 275 -70 0 -70 0 0 -100 0 -100 -150 0 -149 0 -3 98 -3 97
-72 3 -73 3 0 -276z"/>
<path d="M1400 825 l0 -275 236 0 c185 0 234 3 228 13 -4 6 -25 35 -46 64
l-38 52 -123 3 -122 3 -3 208 -2 207 -65 0 -65 0 0 -275z"/>
<path d="M2019 1084 c-25 -7 -66 -32 -91 -54 -116 -101 -127 -270 -27 -384 76
-86 93 -91 337 -94 l212 -3 0 165 0 166 -191 0 c-149 0 -189 -3 -183 -12 4 -7
25 -36 46 -65 l38 -52 78 -3 77 -3 0 -30 0 -30 -125 0 c-105 0 -131 3 -153 18
-64 42 -86 131 -47 194 31 52 51 58 220 63 l154 5 39 50 c71 93 84 85 -140 84
-141 0 -211 -4 -244 -15z"/>
<path d="M2732 1082 c-105 -38 -168 -116 -179 -224 -12 -120 42 -225 142 -273
108 -53 267 -43 342 22 l33 28 -39 41 -40 42 -47 -24 c-53 -27 -109 -31 -157
-10 -34 14 -70 50 -80 78 -6 16 9 18 196 20 232 3 219 -3 197 103 -34 163
-205 255 -368 197z m199 -140 c16 -18 29 -41 29 -52 0 -19 -7 -20 -130 -20
-88 0 -130 4 -130 11 0 20 32 66 59 83 19 12 42 16 85 13 51 -3 63 -8 87 -35z"/>
<path d="M3460 1088 c-19 -5 -50 -21 -67 -34 l-33 -25 0 30 0 31 -75 0 -75 0
0 -265 0 -265 74 0 74 0 4 153 c3 128 6 157 23 184 23 39 69 63 119 63 l36 0
0 70 c0 78 -3 80 -80 58z"/>
<path d="M3702 1084 c-29 -7 -66 -21 -82 -29 l-30 -15 27 -54 26 -55 41 22
c30 15 60 21 109 22 65 0 70 -2 98 -33 16 -18 29 -41 29 -51 0 -16 -12 -19
-113 -23 -165 -7 -223 -43 -234 -142 -11 -95 57 -164 170 -173 73 -6 123 7
161 42 l26 24 0 -29 0 -30 70 0 70 0 0 188 c0 209 -9 244 -69 295 -64 53 -190
71 -299 41z m218 -339 c0 -45 -34 -81 -84 -90 -68 -13 -116 14 -116 65 0 45
31 60 122 60 l78 0 0 -35z"/>
</g>
</svg>
